<mxfile host="app.diagrams.net" agent="Mozilla/5.0 (Windows NT 10.0; Win64; x64) AppleWebKit/537.36 (KHTML, like Gecko) Chrome/127.0.0.0 Safari/537.36" version="24.7.6">
  <diagram name="Page-1" id="03018318-947c-dd8e-b7a3-06fadd420f32">
    <mxGraphModel dx="1843" dy="821" grid="1" gridSize="10" guides="1" tooltips="1" connect="1" arrows="1" fold="1" page="1" pageScale="1" pageWidth="1100" pageHeight="850" background="none" math="0" shadow="0">
      <root>
        <mxCell id="0" />
        <mxCell id="1" parent="0" />
        <mxCell id="y4dV7mQY_vN-6KA4-370-19" value="" style="ellipse;shape=doubleEllipse;whiteSpace=wrap;html=1;aspect=fixed;" parent="1" vertex="1">
          <mxGeometry x="27" y="39" width="60" height="60" as="geometry" />
        </mxCell>
        <mxCell id="677b7b8949515195-1" value="" style="whiteSpace=wrap;html=1;rounded=0;shadow=0;labelBackgroundColor=none;strokeColor=#000000;strokeWidth=1;fillColor=none;fontFamily=Verdana;fontSize=12;fontColor=#000000;align=center;comic=1;" parent="1" vertex="1">
          <mxGeometry x="20" y="21" width="1060" height="810" as="geometry" />
        </mxCell>
        <mxCell id="677b7b8949515195-2" value="LOGO Client" style="whiteSpace=wrap;html=1;rounded=0;shadow=0;labelBackgroundColor=none;strokeWidth=1;fontFamily=Verdana;fontSize=28;align=center;comic=1;" parent="1" vertex="1">
          <mxGeometry x="120" y="46" width="190" height="50" as="geometry" />
        </mxCell>
        <mxCell id="677b7b8949515195-9" value="" style="line;strokeWidth=1;html=1;rounded=0;shadow=0;labelBackgroundColor=none;fillColor=none;fontFamily=Verdana;fontSize=14;fontColor=#000000;align=center;comic=1;" parent="1" vertex="1">
          <mxGeometry x="100" y="110" width="980" height="10" as="geometry" />
        </mxCell>
        <mxCell id="677b7b8949515195-11" value="&lt;font style=&quot;font-size: 24px;&quot;&gt;Map Title&lt;/font&gt;" style="text;html=1;points=[];align=left;verticalAlign=top;spacingTop=-4;fontSize=14;fontFamily=Verdana" parent="1" vertex="1">
          <mxGeometry x="123" y="129" width="130" height="34" as="geometry" />
        </mxCell>
        <mxCell id="677b7b8949515195-16" value="" style="verticalLabelPosition=bottom;shadow=0;dashed=0;align=center;html=1;verticalAlign=top;strokeWidth=1;shape=mxgraph.mockup.graphics.simpleIcon;strokeColor=#999999;rounded=0;labelBackgroundColor=none;fontFamily=Verdana;fontSize=14;fontColor=#000000;comic=1;" parent="1" vertex="1">
          <mxGeometry x="120" y="180" width="460" height="540" as="geometry" />
        </mxCell>
        <mxCell id="677b7b8949515195-25" value="" style="whiteSpace=wrap;html=1;rounded=0;shadow=0;labelBackgroundColor=none;strokeWidth=1;fillColor=none;fontFamily=Verdana;fontSize=12;align=center;comic=1;" parent="1" vertex="1">
          <mxGeometry x="650" y="180" width="410" height="300" as="geometry" />
        </mxCell>
        <mxCell id="677b7b8949515195-26" value="" style="whiteSpace=wrap;html=1;rounded=0;shadow=0;labelBackgroundColor=none;strokeWidth=1;fillColor=none;fontFamily=Verdana;fontSize=12;align=center;comic=1;" parent="1" vertex="1">
          <mxGeometry x="650" y="690" width="410" height="120" as="geometry" />
        </mxCell>
        <mxCell id="677b7b8949515195-42" value="&lt;font style=&quot;font-size: 36px;&quot;&gt;Graph t/s&lt;/font&gt;" style="text;html=1;points=[];align=left;verticalAlign=top;spacingTop=-4;fontSize=14;fontFamily=Verdana" parent="1" vertex="1">
          <mxGeometry x="751" y="303" width="195" height="57" as="geometry" />
        </mxCell>
        <mxCell id="y4dV7mQY_vN-6KA4-370-2" value="" style="whiteSpace=wrap;html=1;rounded=0;shadow=0;labelBackgroundColor=none;strokeWidth=1;fillColor=none;fontFamily=Verdana;fontSize=12;align=center;comic=1;" parent="1" vertex="1">
          <mxGeometry x="120" y="740" width="460" height="70" as="geometry" />
        </mxCell>
        <mxCell id="677b7b8949515195-44" value="Map Controls" style="text;html=1;points=[];align=left;verticalAlign=top;spacingTop=-4;fontSize=14;fontFamily=Verdana" parent="1" vertex="1">
          <mxGeometry x="160" y="760" width="170" height="20" as="geometry" />
        </mxCell>
        <mxCell id="y4dV7mQY_vN-6KA4-370-5" value="LOGO Intera" style="whiteSpace=wrap;html=1;rounded=0;shadow=0;labelBackgroundColor=none;strokeWidth=1;fontFamily=Verdana;fontSize=28;align=center;comic=1;" parent="1" vertex="1">
          <mxGeometry x="790" y="47.5" width="190" height="50" as="geometry" />
        </mxCell>
        <mxCell id="y4dV7mQY_vN-6KA4-370-6" value="&lt;font style=&quot;font-size: 36px;&quot;&gt;Model Map&lt;/font&gt;" style="text;html=1;points=[];align=left;verticalAlign=top;spacingTop=-4;fontSize=14;fontFamily=Verdana" parent="1" vertex="1">
          <mxGeometry x="280" y="425" width="210" height="60" as="geometry" />
        </mxCell>
        <mxCell id="y4dV7mQY_vN-6KA4-370-7" value="" style="line;strokeWidth=1;html=1;rounded=0;shadow=0;labelBackgroundColor=none;fillColor=none;fontFamily=Verdana;fontSize=14;fontColor=#000000;align=center;comic=1;rotation=-90;" parent="1" vertex="1">
          <mxGeometry x="265" y="472" width="710" height="10" as="geometry" />
        </mxCell>
        <mxCell id="y4dV7mQY_vN-6KA4-370-8" value="Graph Controls" style="text;html=1;points=[];align=left;verticalAlign=top;spacingTop=-4;fontSize=14;fontFamily=Verdana" parent="1" vertex="1">
          <mxGeometry x="680" y="720" width="170" height="20" as="geometry" />
        </mxCell>
        <mxCell id="y4dV7mQY_vN-6KA4-370-9" value="" style="whiteSpace=wrap;html=1;rounded=0;shadow=0;labelBackgroundColor=none;strokeWidth=1;fillColor=none;fontFamily=Verdana;fontSize=12;align=center;comic=1;" parent="1" vertex="1">
          <mxGeometry x="650" y="528" width="410" height="140" as="geometry" />
        </mxCell>
        <mxCell id="y4dV7mQY_vN-6KA4-370-10" value="&lt;font style=&quot;font-size: 36px;&quot;&gt;Graph FDC&lt;/font&gt;" style="text;html=1;points=[];align=left;verticalAlign=top;spacingTop=-4;fontSize=14;fontFamily=Verdana" parent="1" vertex="1">
          <mxGeometry x="746" y="562.5" width="215" height="59.5" as="geometry" />
        </mxCell>
        <mxCell id="y4dV7mQY_vN-6KA4-370-11" value="" style="line;strokeWidth=1;html=1;rounded=0;shadow=0;labelBackgroundColor=none;fillColor=none;fontFamily=Verdana;fontSize=14;fontColor=#000000;align=center;comic=1;rotation=90;" parent="1" vertex="1">
          <mxGeometry x="-305" y="425" width="800" height="10" as="geometry" />
        </mxCell>
        <mxCell id="y4dV7mQY_vN-6KA4-370-12" value="&lt;font style=&quot;font-size: 18px;&quot;&gt;Plot Title&lt;/font&gt;" style="text;html=1;points=[];align=left;verticalAlign=top;spacingTop=-4;fontSize=14;fontFamily=Verdana" parent="1" vertex="1">
          <mxGeometry x="650" y="144" width="130" height="30" as="geometry" />
        </mxCell>
        <mxCell id="y4dV7mQY_vN-6KA4-370-13" value="" style="shape=image;html=1;verticalLabelPosition=bottom;verticalAlign=top;imageAspect=0;image=img/clipart/Gear_128x128.png" parent="1" vertex="1">
          <mxGeometry x="1020" y="43" width="45" height="54" as="geometry" />
        </mxCell>
        <mxCell id="y4dV7mQY_vN-6KA4-370-14" value="" style="strokeColor=#999999;verticalLabelPosition=bottom;shadow=0;dashed=0;verticalAlign=top;strokeWidth=2;html=1;shape=mxgraph.mockup.misc.shareIcon;" parent="1" vertex="1">
          <mxGeometry x="35" y="233" width="45" height="45" as="geometry" />
        </mxCell>
        <mxCell id="y4dV7mQY_vN-6KA4-370-15" value="" style="strokeColor=#999999;verticalLabelPosition=bottom;shadow=0;dashed=0;verticalAlign=top;strokeWidth=2;html=1;shape=mxgraph.mockup.misc.volumeIcon;" parent="1" vertex="1">
          <mxGeometry x="35" y="309" width="40" height="40" as="geometry" />
        </mxCell>
        <mxCell id="y4dV7mQY_vN-6KA4-370-16" value="" style="strokeColor=#999999;verticalLabelPosition=bottom;shadow=0;dashed=0;verticalAlign=top;strokeWidth=2;html=1;shape=mxgraph.mockup.misc.trashcanIcon;" parent="1" vertex="1">
          <mxGeometry x="35" y="750" width="40" height="40" as="geometry" />
        </mxCell>
        <mxCell id="y4dV7mQY_vN-6KA4-370-17" value="" style="verticalLabelPosition=bottom;shadow=0;dashed=0;align=center;html=1;verticalAlign=top;strokeWidth=1;shape=mxgraph.mockup.misc.shoppingCart;strokeColor=#999999;" parent="1" vertex="1">
          <mxGeometry x="40" y="167" width="40" height="40" as="geometry" />
        </mxCell>
        <mxCell id="y4dV7mQY_vN-6KA4-370-18" value="" style="shape=actor;whiteSpace=wrap;html=1;" parent="1" vertex="1">
          <mxGeometry x="39.5" y="49" width="35" height="35" as="geometry" />
        </mxCell>
        <mxCell id="y4dV7mQY_vN-6KA4-370-20" value="&lt;font style=&quot;font-size: 12px;&quot;&gt;User Name&lt;/font&gt;" style="text;html=1;points=[];align=left;verticalAlign=top;spacingTop=-4;fontSize=14;fontFamily=Verdana" parent="1" vertex="1">
          <mxGeometry x="21" y="97" width="66" height="32" as="geometry" />
        </mxCell>
        <mxCell id="V2PRNZV-iOax24cs2OF9-1" value="" style="triangle;whiteSpace=wrap;html=1;" vertex="1" parent="1">
          <mxGeometry x="63" y="540.5" width="24" height="32" as="geometry" />
        </mxCell>
        <mxCell id="V2PRNZV-iOax24cs2OF9-2" value="&lt;font style=&quot;font-size: 18px;&quot;&gt;Plot Title&lt;/font&gt;" style="text;html=1;points=[];align=left;verticalAlign=top;spacingTop=-4;fontSize=14;fontFamily=Verdana" vertex="1" parent="1">
          <mxGeometry x="650" y="491" width="130" height="30" as="geometry" />
        </mxCell>
        <mxCell id="V2PRNZV-iOax24cs2OF9-3" value="" style="rounded=0;whiteSpace=wrap;html=1;" vertex="1" parent="1">
          <mxGeometry x="480" y="130" width="100" height="40" as="geometry" />
        </mxCell>
        <mxCell id="V2PRNZV-iOax24cs2OF9-4" value="" style="rounded=0;whiteSpace=wrap;html=1;" vertex="1" parent="1">
          <mxGeometry x="530" y="130" width="50" height="40" as="geometry" />
        </mxCell>
        <mxCell id="V2PRNZV-iOax24cs2OF9-5" value="&lt;font style=&quot;font-size: 18px;&quot;&gt;2D&lt;/font&gt;" style="text;html=1;points=[];align=left;verticalAlign=top;spacingTop=-4;fontSize=14;fontFamily=Verdana" vertex="1" parent="1">
          <mxGeometry x="490" y="135" width="30" height="30" as="geometry" />
        </mxCell>
        <mxCell id="V2PRNZV-iOax24cs2OF9-7" value="&lt;font style=&quot;font-size: 18px;&quot;&gt;3D&lt;/font&gt;" style="text;html=1;points=[];align=left;verticalAlign=top;spacingTop=-4;fontSize=14;fontFamily=Verdana" vertex="1" parent="1">
          <mxGeometry x="540" y="136" width="31" height="30" as="geometry" />
        </mxCell>
      </root>
    </mxGraphModel>
  </diagram>
</mxfile>
